<svg width="50" height="50" viewBox="0 0 50 50" fill="none" xmlns="http://www.w3.org/2000/svg">
<path d="M0 24.43C0 12.9136 0 7.15537 3.57769 3.57769C7.15537 0 12.9136 0 24.43 0H25.57C37.0864 0 42.8446 0 46.4223 3.57769C50 7.15537 50 12.9136 50 24.43V25.57C50 37.0864 50 42.8446 46.4223 46.4223C42.8446 50 37.0864 50 25.57 50H24.43C12.9136 50 7.15537 50 3.57769 46.4223C0 42.8446 0 37.0864 0 25.57V24.43Z" fill="#11234D"/>
<path fill-rule="evenodd" clip-rule="evenodd" d="M25 17.1772L32.961 21.7997V31.0447L25 35.6672L17.0391 31.0447L17.0391 21.7997L25 17.1772Z" fill="url(#paint0_linear_147_58)"/>
<path d="M25 39.2625L36.0426 32.8424V20.0021L25 13.582L13.9574 20.0021V32.8424L25 39.2625ZM25 39.2625V26.2939" stroke="#3873FF" stroke-width="1.08648" stroke-linecap="round" stroke-linejoin="round"/>
<path d="M16.1403 37.5932L10.8758 34.3648V18.5645L16.1403 15.2512" stroke="white" stroke-width="0.814861" stroke-linecap="round" stroke-linejoin="round"/>
<path fill-rule="evenodd" clip-rule="evenodd" d="M17.2958 15.8935C18.005 15.8935 18.5799 15.3186 18.5799 14.6095C18.5799 13.9003 18.005 13.3254 17.2958 13.3254C16.5867 13.3254 16.0118 13.9003 16.0118 14.6095C16.0118 15.3186 16.5867 15.8935 17.2958 15.8935Z" stroke="white" stroke-width="0.814861"/>
<path fill-rule="evenodd" clip-rule="evenodd" d="M17.2958 39.5192C18.005 39.5192 18.5799 38.9443 18.5799 38.2352C18.5799 37.526 18.005 36.9512 17.2958 36.9512C16.5867 36.9512 16.0118 37.526 16.0118 38.2352C16.0118 38.9443 16.5867 39.5192 17.2958 39.5192Z" stroke="white" stroke-width="0.814861"/>
<path d="M33.8597 37.5932L39.1242 34.3648V18.5646L33.8597 15.3796" stroke="white" stroke-width="0.814861" stroke-linecap="round" stroke-linejoin="round"/>
<path fill-rule="evenodd" clip-rule="evenodd" d="M32.7042 15.8935C31.995 15.8935 31.4201 15.3186 31.4201 14.6095C31.4201 13.9003 31.995 13.3254 32.7042 13.3254C33.4133 13.3254 33.9882 13.9003 33.9882 14.6095C33.9882 15.3186 33.4133 15.8935 32.7042 15.8935Z" stroke="white" stroke-width="0.814861"/>
<path fill-rule="evenodd" clip-rule="evenodd" d="M32.7042 39.5192C31.995 39.5192 31.4201 38.9443 31.4201 38.2352C31.4201 37.526 31.995 36.9512 32.7042 36.9512C33.4133 36.9512 33.9882 37.526 33.9882 38.2352C33.9882 38.9443 33.4133 39.5192 32.7042 39.5192Z" stroke="white" stroke-width="0.814861"/>
<rect opacity="0.1" x="20.9256" y="8.15942" width="3.25944" height="3.25944" fill="#3CE1CD"/>
<rect opacity="0.1" x="25.8148" y="8.15942" width="3.25944" height="3.25944" fill="#3CE1CD"/>
<rect opacity="0.4" x="20.9256" y="12.2336" width="3.25944" height="3.25944" fill="#3CE1CD"/>
<rect opacity="0.4" x="25.8148" y="12.2336" width="3.25944" height="3.25944" fill="#3CE1CD"/>
<rect opacity="0.7" x="20.9256" y="16.3081" width="3.25944" height="3.25944" fill="#3CE1CD"/>
<rect opacity="0.7" x="25.8148" y="16.3081" width="3.25944" height="3.25944" fill="#3CE1CD"/>
<rect x="20.9256" y="20.3823" width="3.25944" height="3.25944" fill="#3CE1CD"/>
<rect x="25.8148" y="20.3823" width="3.25944" height="3.25944" fill="#3CE1CD"/>
<defs>
<linearGradient id="paint0_linear_147_58" x1="25" y1="17.1772" x2="25" y2="35.6672" gradientUnits="userSpaceOnUse">
<stop stop-color="#3873FF"/>
<stop offset="1" stop-color="#3873FF" stop-opacity="0"/>
</linearGradient>
</defs>
</svg>
