<svg width="50" height="50" viewBox="0 0 50 50" fill="none" xmlns="http://www.w3.org/2000/svg">
<path d="M0 24.43C0 12.9136 0 7.15537 3.57769 3.57769C7.15537 0 12.9136 0 24.43 0H25.57C37.0864 0 42.8446 0 46.4223 3.57769C50 7.15537 50 12.9136 50 24.43V25.57C50 37.0864 50 42.8446 46.4223 46.4223C42.8446 50 37.0864 50 25.57 50H24.43C12.9136 50 7.15537 50 3.57769 46.4223C0 42.8446 0 37.0864 0 25.57V24.43Z" fill="#11234D"/>
<path d="M16.0137 33.4859V18.6082H34.8588V33.4859" stroke="url(#paint0_linear_147_84)" stroke-width="0.94593"/>
<circle cx="18.1214" cy="20.7156" r="0.619905" fill="#3873FF"/>
<circle cx="19.8571" cy="20.7156" r="0.619905" fill="#3873FF"/>
<circle cx="21.5929" cy="20.7156" r="0.619905" fill="#3873FF"/>
<path d="M17.9974 22.3274H25.9322V31.254H17.9974V22.3274Z" fill="url(#paint1_linear_147_84)"/>
<path d="M27.1284 27.3647H32.804V31.1485H27.1284V27.3647Z" fill="#3873FF"/>
<path d="M27.1284 22.3987H32.804V26.1824H27.1284V22.3987Z" fill="#3873FF"/>
<rect width="0.765891" height="3.67628" transform="matrix(1 0 0 -1 15.0907 34.4775)" fill="#3CE1CD"/>
<path d="M13.7406 31.6152L14.2822 32.1568L16.0152 30.4238L15.4736 29.8822L13.7406 31.6152Z" fill="#3CE1CD"/>
<path d="M17.2121 31.6152L16.6705 32.1568L14.9375 30.4238L15.4791 29.8822L17.2121 31.6152Z" fill="#3CE1CD"/>
<circle cx="15.4764" cy="32.246" r="3.71943" stroke="white" stroke-width="0.709447"/>
<path d="M28.0765 15.5981L15.1825 15.5981" stroke="white" stroke-width="0.709447" stroke-linecap="round" stroke-linejoin="round"/>
<path fill-rule="evenodd" clip-rule="evenodd" d="M13.8853 16.7232C14.5384 16.7232 15.0677 16.1938 15.0677 15.5408C15.0677 14.8878 14.5384 14.3584 13.8853 14.3584C13.2323 14.3584 12.7029 14.8878 12.7029 15.5408C12.7029 16.1938 13.2323 16.7232 13.8853 16.7232Z" stroke="white" stroke-width="0.709447"/>
<path d="M22.8694 34.7532L35.7634 34.7532" stroke="white" stroke-width="0.709447" stroke-linecap="round" stroke-linejoin="round"/>
<path fill-rule="evenodd" clip-rule="evenodd" d="M37.0606 35.8783C36.4076 35.8783 35.8782 35.3489 35.8782 34.6958C35.8782 34.0428 36.4076 33.5134 37.0606 33.5134C37.7136 33.5134 38.243 34.0428 38.243 34.6958C38.243 35.3489 37.7136 35.8783 37.0606 35.8783Z" stroke="white" stroke-width="0.709447"/>
<rect opacity="0.1" width="2.57408" height="2.57408" transform="matrix(1 0 0 -1 31.1486 26.4983)" fill="#3CE1CD"/>
<rect opacity="0.1" width="2.57408" height="2.57408" transform="matrix(1 0 0 -1 34.9908 27.9861)" fill="#3CE1CD"/>
<rect opacity="0.4" width="2.57408" height="2.57408" transform="matrix(1 0 0 -1 31.1486 23.1521)" fill="#3CE1CD"/>
<rect opacity="0.4" width="2.57408" height="2.57408" transform="matrix(1 0 0 -1 34.9908 24.6399)" fill="#3CE1CD"/>
<rect opacity="0.7" width="2.57408" height="2.57408" transform="matrix(1 0 0 -1 31.1486 19.8057)" fill="#3CE1CD"/>
<rect opacity="0.7" width="2.57408" height="2.57408" transform="matrix(1 0 0 -1 34.9908 21.2935)" fill="#3CE1CD"/>
<rect width="2.57408" height="2.57408" transform="matrix(1 0 0 -1 31.1486 16.4595)" fill="#3CE1CD"/>
<rect width="2.57408" height="2.57408" transform="matrix(1 0 0 -1 34.9908 17.9473)" fill="#3CE1CD"/>
<defs>
<linearGradient id="paint0_linear_147_84" x1="25.4362" y1="18.6082" x2="25.4362" y2="33.4859" gradientUnits="userSpaceOnUse">
<stop stop-color="#3873FF"/>
<stop offset="1" stop-color="#3873FF" stop-opacity="0"/>
</linearGradient>
<linearGradient id="paint1_linear_147_84" x1="21.9648" y1="22.3274" x2="21.9648" y2="31.254" gradientUnits="userSpaceOnUse">
<stop stop-color="#3873FF"/>
<stop offset="1" stop-color="#3873FF" stop-opacity="0"/>
</linearGradient>
</defs>
</svg>
